<svg width="16" height="16" viewBox="0 0 16 16" fill="none" xmlns="http://www.w3.org/2000/svg">
<path d="M9.31152 1.86719C9.34644 1.95173 9.37986 2.10481 9.37988 2.3457V7.64551H11.9404C12.1264 7.64555 12.2436 7.67485 12.3076 7.70312C12.3285 7.71239 12.341 7.72193 12.3486 7.72754C12.3478 7.73688 12.3468 7.75249 12.3398 7.77441C12.3187 7.84096 12.2624 7.94819 12.1387 8.08789L12.1377 8.08887L7.62402 13.2227L7.09082 13.8291C6.93172 14.0096 6.8052 14.1028 6.72266 14.1436C6.71431 14.1477 6.70582 14.1486 6.69922 14.1514C6.69639 14.1454 6.69165 14.1395 6.68848 14.1318C6.65354 14.0473 6.62012 13.8934 6.62012 13.6523V8.35254H4.05957C3.87343 8.35249 3.75635 8.32323 3.69238 8.29492C3.67065 8.28529 3.65791 8.27614 3.65039 8.27051C3.65126 8.26114 3.65331 8.2462 3.66016 8.22461C3.68124 8.15809 3.73734 8.05112 3.86133 7.91113L3.8623 7.90918L8.37598 2.77637L8.90918 2.16895L8.9082 2.16797C9.06716 1.98769 9.19486 1.89615 9.27734 1.85547C9.2855 1.85145 9.29332 1.84943 9.2998 1.84668C9.30278 1.85287 9.30815 1.85902 9.31152 1.86719Z" stroke="#268D40"/>
</svg>
