<svg width="187" height="190" viewBox="0 0 187 190" fill="none" xmlns="http://www.w3.org/2000/svg">
<rect x="1" y="32" width="167" height="157" rx="23" fill="#EFEFEF" stroke="black" stroke-width="2"/>
<path d="M17.584 144.68V141.704H26.512V138.056H20.416C20.032 138.056 19.688 137.984 19.384 137.84C19.096 137.696 18.848 137.504 18.64 137.264C18.448 137.008 18.304 136.728 18.208 136.424C18.112 136.104 18.064 135.776 18.064 135.44V125.216H21.4V128.648H35.032V125.216H38.368V138.056H29.872V141.704H38.848V144.68H17.584ZM35.032 135.128V131.576H21.4V134.576C21.4 134.944 21.576 135.128 21.928 135.128H35.032ZM42.7906 128.192V125.216H54.5506C54.9346 125.216 55.2706 125.288 55.5586 125.432C55.8626 125.576 56.1106 125.776 56.3026 126.032C56.5106 126.272 56.6626 126.552 56.7586 126.872C56.8546 127.176 56.9026 127.496 56.9026 127.832V134.264H59.1106V125.216H62.4466V129.848H64.5826V132.8H62.4466V146.024H45.1426C44.7426 146.024 44.3906 145.952 44.0866 145.808C43.7986 145.664 43.5586 145.464 43.3666 145.208C43.1746 144.968 43.0306 144.688 42.9346 144.368C42.8386 144.064 42.7906 143.744 42.7906 143.408V139.136H46.1026V142.496C46.1026 142.864 46.2866 143.048 46.6546 143.048H59.1106V137.144H42.3106V134.264H46.1746V130.568H49.5586V134.264H53.5666V128.744C53.5666 128.376 53.3906 128.192 53.0386 128.192H42.7906ZM87.1731 125.216V129.608H89.3091V132.536H87.1731V146.024H70.3491C69.9651 146.024 69.6211 145.952 69.3171 145.808C69.0291 145.664 68.7811 145.464 68.5731 145.208C68.3811 144.968 68.2371 144.688 68.1411 144.368C68.0451 144.064 67.9971 143.744 67.9971 143.408V138.608H83.8371V125.216H87.1731ZM71.0211 129.944H77.7171C79.0611 129.944 80.0771 130.256 80.7651 130.88C81.4531 131.488 81.7971 132.392 81.7971 133.592C81.7971 134.808 81.4531 135.728 80.7651 136.352C80.0771 136.96 79.0611 137.264 77.7171 137.264H71.0211C69.7251 137.264 68.7331 136.96 68.0451 136.352C67.3571 135.728 67.0131 134.808 67.0131 133.592C67.0131 132.392 67.3571 131.488 68.0451 130.88C68.7331 130.256 69.7251 129.944 71.0211 129.944ZM66.5571 126.008V128.888H82.2051V126.008H76.0611V124.4H72.7011V126.008H66.5571ZM71.8611 143.36H83.8371V141.272H71.3331V142.808C71.3331 143.176 71.5091 143.36 71.8611 143.36ZM71.6451 134.696H77.1171C77.5651 134.696 77.8931 134.584 78.1011 134.36C78.3091 134.12 78.4131 133.864 78.4131 133.592C78.4131 133.336 78.3091 133.104 78.1011 132.896C77.8931 132.672 77.5651 132.56 77.1171 132.56H71.6451C71.1811 132.56 70.8451 132.672 70.6371 132.896C70.4451 133.104 70.3491 133.336 70.3491 133.592C70.3491 133.864 70.4451 134.12 70.6371 134.36C70.8451 134.584 71.1811 134.696 71.6451 134.696ZM17.584 173.68V170.704H26.512V167.056H20.416C20.032 167.056 19.688 166.984 19.384 166.84C19.096 166.696 18.848 166.504 18.64 166.264C18.448 166.008 18.304 165.728 18.208 165.424C18.112 165.104 18.064 164.776 18.064 164.44V154.216H21.4V157.648H35.032V154.216H38.368V167.056H29.872V170.704H38.848V173.68H17.584ZM35.032 164.128V160.576H21.4V163.576C21.4 163.944 21.576 164.128 21.928 164.128H35.032ZM42.5506 157.12V154.216H54.2866V162.592C54.2866 164.016 54.0146 165.376 53.4706 166.672C52.9266 167.968 52.1426 169.112 51.1186 170.104C50.0946 171.08 48.8546 171.856 47.3986 172.432C45.9586 173.008 44.3426 173.288 42.5506 173.272V170.344C43.7026 170.28 44.7906 170.072 45.8146 169.72C46.8386 169.368 47.7266 168.872 48.4786 168.232C49.2306 167.592 49.8226 166.816 50.2546 165.904C50.7026 164.976 50.9266 163.904 50.9266 162.688V157.12H42.5506ZM60.2386 154.216H63.5746V175.024H60.2386V154.216Z" fill="#222222"/>
<path d="M138.566 151.09C137.91 151.705 137.91 152.744 138.566 153.359L143.379 158.199L128.613 158.199C127.711 158.199 127 158.91 127 159.812C127 160.701 127.711 161.412 128.613 161.426L143.379 161.426L138.566 166.266C137.91 166.881 137.91 167.906 138.566 168.508C139.182 169.164 140.207 169.164 140.809 168.508L148.41 160.934C149.053 160.318 149.053 159.293 148.41 158.664L140.809 151.09C140.207 150.447 139.182 150.447 138.566 151.09Z" fill="#7099CF"/>
<path d="M74.284 60.1037C77.1605 58.0179 80.6497 56.9485 84.2009 57.0649L150.185 59.2297C153.852 59.35 155.435 63.9322 152.625 66.2912L152.575 66.3321C153.185 67.4806 153.247 68.9083 152.588 70.1192C154.053 71.3254 154.534 73.5216 153.522 75.2363C154.292 76.5964 154.278 78.3805 153.181 79.7254C154.278 81.1202 154.422 83.2036 153.18 84.7248C154.255 86.0908 154.416 88.1184 153.256 89.6309C154.551 91.1789 154.629 93.6538 152.855 95.2179C154.542 96.7218 154.807 99.5861 152.776 101.291L141.381 110.856C138.361 113.391 134.511 114.722 130.57 114.592L62.8196 112.37C59.1453 112.249 57.6264 107.709 60.2943 105.38C58.8066 104.05 58.4433 101.66 59.7438 99.9666C58.5775 98.5661 58.4104 96.41 59.6659 94.8733C58.5692 93.4716 58.4382 91.3756 59.6658 89.8732C58.6836 88.6177 58.4754 86.8046 59.3248 85.3604C58.6692 84.1934 58.592 82.7165 59.259 81.4822C57.4465 79.9871 57.1632 76.9706 59.277 75.2705C58.4121 73.6373 58.6533 71.4372 60.4515 70.1333L74.284 60.1037Z" fill="#F3EDFD"/>
<path d="M60.6024 64.5748L74.4352 54.5443C77.3118 52.4584 80.8009 51.3894 84.3523 51.5059L150.336 53.6703C154.003 53.7906 155.587 58.3729 152.776 60.7319L141.381 70.2969C138.361 72.832 134.511 74.1625 130.57 74.0333L62.8194 71.8109C59.0111 71.686 57.5177 66.8116 60.6024 64.5748Z" fill="#F3EDFD" stroke="black" stroke-width="2" stroke-linecap="round" stroke-linejoin="round"/>
<path d="M153.391 65.7776L141.759 75.3928C138.752 77.8786 134.94 79.1799 131.041 79.052L61.5776 76.7735C58.2202 76.6633 56.9532 72.3299 59.7225 70.4285" stroke="black" stroke-width="2" stroke-linecap="round" stroke-linejoin="round"/>
<path d="M153.227 70.7737L141.595 80.3889C138.588 82.8747 134.776 84.176 130.877 84.0481L60.7087 81.7464C57.9731 81.6567 57.1108 78.0101 59.5164 76.7046" stroke="black" stroke-width="2" stroke-linecap="round" stroke-linejoin="round"/>
<path d="M153.064 75.7717L141.431 85.387C138.424 87.8727 134.612 89.174 130.713 89.0461L60.5449 86.7445C57.8093 86.6547 56.947 83.0082 59.3526 81.7027" stroke="black" stroke-width="2" stroke-linecap="round" stroke-linejoin="round"/>
<path d="M152.893 80.9548L140.933 90.5345C137.954 92.9205 134.221 94.163 130.406 94.0379L61.9789 91.7934C60.1757 91.7342 58.5114 90.4664 58.5903 88.664C58.6313 87.7274 58.8694 86.9433 59.4895 86.7757" stroke="black" stroke-width="2" stroke-linecap="round" stroke-linejoin="round"/>
<path d="M152.893 96.0817L140.933 105.661C137.954 108.047 134.221 109.29 130.406 109.165L61.9789 106.92C60.1757 106.861 58.5114 105.593 58.5903 103.791C58.6313 102.854 58.8694 102.07 59.4895 101.903" stroke="black" stroke-width="2" stroke-linecap="round" stroke-linejoin="round"/>
<path d="M152.893 91.0817L140.933 100.661C137.954 103.047 134.221 104.29 130.406 104.165L61.9789 101.92C60.1757 101.861 58.5114 100.593 58.5903 98.7909C58.6313 97.8543 58.8694 97.0703 59.4895 96.9027" stroke="black" stroke-width="2" stroke-linecap="round" stroke-linejoin="round"/>
<path d="M152.893 86.0817L140.933 95.6615C137.954 98.0474 134.221 99.29 130.406 99.1649L61.9789 96.9203C60.1757 96.8612 58.5114 95.5933 58.5903 93.7909C58.6313 92.8543 58.8694 92.0703 59.4895 91.9027" stroke="black" stroke-width="2" stroke-linecap="round" stroke-linejoin="round"/>
<path d="M154.5 57.999L152.732 99.7489C152.683 100.895 152.145 101.966 151.253 102.688L141.46 110.619C138.471 113.04 134.71 114.302 130.866 114.176L62.4879 111.933C60.6848 111.874 59.0205 110.606 59.0994 108.804C59.1404 107.867 59.3784 107.083 59.9986 106.916" stroke="black" stroke-width="2" stroke-linecap="round" stroke-linejoin="round"/>
<path d="M73.4732 65.0518C73.1874 63.2859 68.1603 63.9485 66.3804 64.6141L80.0621 55.3778C80.0621 55.3778 80.8361 56.6101 82.0424 56.4164C83.3919 56.1997 85.1747 54.7769 85.1747 54.7769L147.842 57.0931C147.842 57.0931 145.373 58.562 145.699 59.252C146.091 60.0817 148.783 60.112 148.783 60.112L137.715 68.6988C138.429 67.9792 137.763 66.1993 135.15 66.8487C132.537 67.4981 131.574 69.0131 131.385 70.1763L68.3121 68.1522C69.6484 68.0114 73.759 66.8176 73.4732 65.0518Z" stroke="black" stroke-width="2" stroke-linecap="round" stroke-linejoin="round"/>
<path d="M79.803 63.5742L86.2949 58.8993" stroke="black" stroke-width="2" stroke-linecap="round" stroke-linejoin="round"/>
<path d="M128.171 65.7129L134.663 61.038" stroke="black" stroke-width="2" stroke-linecap="round" stroke-linejoin="round"/>
<path d="M50.5366 56.2683C50.5366 57.9208 49.7758 59.1671 48.5854 60.133C47.6797 60.8678 46.5254 61.5366 45.2683 61.5366C42.3587 61.5366 40 59.1779 40 56.2683C40 54.9059 40.7123 54.239 41.561 53.3037C42.5248 52.2416 43.7211 51 45.2683 51C46.5254 51 47.6797 51.8262 48.5854 52.561C49.7758 53.5269 50.5366 54.6158 50.5366 56.2683Z" fill="#D9D9D9"/>
<path d="M52 68.5C52 69.8807 51.4985 71 50.1944 71C49.4731 71 48.5442 70.8045 48.1111 70.2647C47.7613 69.8287 47 69.411 47 68.7941C47 67.4134 48.3349 66 49.6389 66C50.9429 66 52 67.1193 52 68.5Z" fill="#D9D9D9"/>
<path d="M159.366 99.281C159.366 100.3 158.553 101.244 158 102.013C157.15 103.194 156.25 103.964 154.683 103.964C153.296 103.964 152.418 102.971 151.561 102.013C150.819 101.184 150 100.48 150 99.281C150 97.3911 150.534 95.9234 152.146 95.1835C152.74 94.9109 154.572 95.0227 155.268 95.0227C156.548 95.0227 157.3 95.8224 158 96.5494C158.715 97.2915 159.366 97.9745 159.366 99.281Z" fill="#D9D9D9"/>
</svg>
